<mxfile host="65bd71144e">
    <diagram id="xn9lEWbih66AXRcEvDvj" name="View Basket">
        <mxGraphModel dx="1974" dy="1717" grid="1" gridSize="10" guides="1" tooltips="1" connect="1" arrows="1" fold="1" page="1" pageScale="1" pageWidth="850" pageHeight="1100" math="0" shadow="0">
            <root>
                <mxCell id="_Pdhp6oRFReHe-XerzVZ-0"/>
                <mxCell id="_Pdhp6oRFReHe-XerzVZ-1" parent="_Pdhp6oRFReHe-XerzVZ-0"/>
                <mxCell id="_Pdhp6oRFReHe-XerzVZ-2" value="" style="strokeWidth=1;shadow=0;dashed=0;align=center;html=1;shape=mxgraph.mockup.containers.browserWindow;rSize=0;strokeColor=#666666;strokeColor2=#008cff;strokeColor3=#c4c4c4;mainText=,;recursiveResize=0;container=0;fillColor=#000000;" parent="_Pdhp6oRFReHe-XerzVZ-1" vertex="1">
                    <mxGeometry x="-400" y="-370" width="1200" height="920" as="geometry"/>
                </mxCell>
                <mxCell id="_Pdhp6oRFReHe-XerzVZ-3" value="Page 1" style="strokeWidth=1;shadow=0;dashed=0;align=center;html=1;shape=mxgraph.mockup.containers.anchor;fontSize=17;fontColor=#666666;align=left;" parent="_Pdhp6oRFReHe-XerzVZ-1" vertex="1">
                    <mxGeometry x="-340" y="-358" width="110" height="26" as="geometry"/>
                </mxCell>
                <mxCell id="_Pdhp6oRFReHe-XerzVZ-4" value="https://www.draw.io" style="strokeWidth=1;shadow=0;dashed=0;align=center;html=1;shape=mxgraph.mockup.containers.anchor;rSize=0;fontSize=17;fontColor=#666666;align=left;" parent="_Pdhp6oRFReHe-XerzVZ-1" vertex="1">
                    <mxGeometry x="-270" y="-310" width="250" height="26" as="geometry"/>
                </mxCell>
                <mxCell id="_Pdhp6oRFReHe-XerzVZ-5" value="" style="rounded=0;whiteSpace=wrap;html=1;fillColor=#6b6570;" parent="_Pdhp6oRFReHe-XerzVZ-1" vertex="1">
                    <mxGeometry x="-400" y="-260" width="1200" height="60" as="geometry"/>
                </mxCell>
                <mxCell id="_Pdhp6oRFReHe-XerzVZ-6" value="Logo" style="rounded=1;whiteSpace=wrap;html=1;fillColor=#3399FF;" parent="_Pdhp6oRFReHe-XerzVZ-1" vertex="1">
                    <mxGeometry x="-380" y="-250" width="350" height="40" as="geometry"/>
                </mxCell>
                <mxCell id="_Pdhp6oRFReHe-XerzVZ-9" value="&lt;span style=&quot;font-size: 36px&quot;&gt;&lt;b&gt;Your cart&lt;/b&gt;&lt;/span&gt;" style="text;html=1;strokeColor=none;fillColor=none;align=left;verticalAlign=middle;whiteSpace=wrap;rounded=0;" parent="_Pdhp6oRFReHe-XerzVZ-1" vertex="1">
                    <mxGeometry x="-260" y="-180" width="290" height="70" as="geometry"/>
                </mxCell>
                <mxCell id="_Pdhp6oRFReHe-XerzVZ-11" value="" style="line;strokeWidth=2;html=1;fontSize=36;" parent="_Pdhp6oRFReHe-XerzVZ-1" vertex="1">
                    <mxGeometry x="-340" y="-110" width="1000" height="10" as="geometry"/>
                </mxCell>
                <mxCell id="_Pdhp6oRFReHe-XerzVZ-29" value="&lt;font style=&quot;font-size: 24px&quot;&gt;Register&lt;/font&gt;" style="rounded=1;html=1;shadow=0;dashed=0;whiteSpace=wrap;fontSize=10;fillColor=#E6E6E6;align=center;strokeColor=#E6E6E6;fontColor=#333333;" parent="_Pdhp6oRFReHe-XerzVZ-1" vertex="1">
                    <mxGeometry x="-90" y="480" width="220" height="50" as="geometry"/>
                </mxCell>
                <mxCell id="CfE6q0CcxsGCjOIaxKRm-0" value="" style="image;html=1;image=img/lib/clip_art/finance/Shopping_Cart_128x128.png" parent="_Pdhp6oRFReHe-XerzVZ-1" vertex="1">
                    <mxGeometry x="-340" y="-180" width="60" height="65" as="geometry"/>
                </mxCell>
                <mxCell id="CfE6q0CcxsGCjOIaxKRm-1" value="" style="ellipse;whiteSpace=wrap;html=1;aspect=fixed;fontSize=18;" parent="_Pdhp6oRFReHe-XerzVZ-1" vertex="1">
                    <mxGeometry x="-320" y="-40" width="80" height="80" as="geometry"/>
                </mxCell>
                <mxCell id="SLljtoW1Gm-KegeCTVSv-0" value="Remove" style="shape=rectangle;strokeColor=none;fillColor=none;linkText=;fontSize=17;fontColor=#0000ff;fontStyle=4;html=1;align=center;" parent="_Pdhp6oRFReHe-XerzVZ-1" vertex="1">
                    <mxGeometry x="220" y="-15" width="150" height="30" as="geometry"/>
                </mxCell>
                <mxCell id="SLljtoW1Gm-KegeCTVSv-1" value="&lt;span style=&quot;font-size: 18px&quot;&gt;Classic Margherita&lt;/span&gt;" style="text;html=1;strokeColor=none;fillColor=none;align=left;verticalAlign=middle;whiteSpace=wrap;rounded=0;" parent="_Pdhp6oRFReHe-XerzVZ-1" vertex="1">
                    <mxGeometry x="-200" y="195" width="410" height="30" as="geometry"/>
                </mxCell>
                <mxCell id="SLljtoW1Gm-KegeCTVSv-2" value="" style="ellipse;whiteSpace=wrap;html=1;aspect=fixed;fontSize=18;" parent="_Pdhp6oRFReHe-XerzVZ-1" vertex="1">
                    <mxGeometry x="-320" y="170" width="80" height="80" as="geometry"/>
                </mxCell>
                <mxCell id="SLljtoW1Gm-KegeCTVSv-3" value="Remove" style="shape=rectangle;strokeColor=none;fillColor=none;linkText=;fontSize=17;fontColor=#0000ff;fontStyle=4;html=1;align=center;" parent="_Pdhp6oRFReHe-XerzVZ-1" vertex="1">
                    <mxGeometry x="220" y="195" width="150" height="30" as="geometry"/>
                </mxCell>
                <mxCell id="SLljtoW1Gm-KegeCTVSv-4" value="&lt;span style=&quot;font-size: 18px&quot;&gt;Vegan Vegi Supreme&lt;/span&gt;" style="text;html=1;strokeColor=none;fillColor=none;align=left;verticalAlign=middle;whiteSpace=wrap;rounded=0;" parent="_Pdhp6oRFReHe-XerzVZ-1" vertex="1">
                    <mxGeometry x="-200" y="95" width="410" height="30" as="geometry"/>
                </mxCell>
                <mxCell id="SLljtoW1Gm-KegeCTVSv-5" value="" style="ellipse;whiteSpace=wrap;html=1;aspect=fixed;fontSize=18;" parent="_Pdhp6oRFReHe-XerzVZ-1" vertex="1">
                    <mxGeometry x="-320" y="70" width="80" height="80" as="geometry"/>
                </mxCell>
                <mxCell id="SLljtoW1Gm-KegeCTVSv-6" value="Remove" style="shape=rectangle;strokeColor=none;fillColor=none;linkText=;fontSize=17;fontColor=#0000ff;fontStyle=4;html=1;align=center;" parent="_Pdhp6oRFReHe-XerzVZ-1" vertex="1">
                    <mxGeometry x="220" y="95" width="150" height="30" as="geometry"/>
                </mxCell>
                <mxCell id="SLljtoW1Gm-KegeCTVSv-7" value="&lt;span style=&quot;font-size: 18px&quot;&gt;£9.99&lt;/span&gt;" style="text;html=1;strokeColor=none;fillColor=none;align=left;verticalAlign=middle;whiteSpace=wrap;rounded=0;" parent="_Pdhp6oRFReHe-XerzVZ-1" vertex="1">
                    <mxGeometry x="350" y="-15" width="110" height="30" as="geometry"/>
                </mxCell>
                <mxCell id="SLljtoW1Gm-KegeCTVSv-8" value="&lt;span style=&quot;font-size: 18px&quot;&gt;£9.99&lt;/span&gt;" style="text;html=1;strokeColor=none;fillColor=none;align=left;verticalAlign=middle;whiteSpace=wrap;rounded=0;" parent="_Pdhp6oRFReHe-XerzVZ-1" vertex="1">
                    <mxGeometry x="350" y="95" width="110" height="30" as="geometry"/>
                </mxCell>
                <mxCell id="SLljtoW1Gm-KegeCTVSv-9" value="&lt;span style=&quot;font-size: 18px&quot;&gt;£6.99&lt;/span&gt;" style="text;html=1;strokeColor=none;fillColor=none;align=left;verticalAlign=middle;whiteSpace=wrap;rounded=0;" parent="_Pdhp6oRFReHe-XerzVZ-1" vertex="1">
                    <mxGeometry x="350" y="195" width="110" height="30" as="geometry"/>
                </mxCell>
                <mxCell id="SLljtoW1Gm-KegeCTVSv-10" value="&lt;font style=&quot;font-size: 14px&quot;&gt;Total (Including VAT)&lt;/font&gt;" style="text;html=1;strokeColor=none;fillColor=none;align=left;verticalAlign=middle;whiteSpace=wrap;rounded=0;" parent="_Pdhp6oRFReHe-XerzVZ-1" vertex="1">
                    <mxGeometry x="200" y="330" width="270" height="30" as="geometry"/>
                </mxCell>
                <mxCell id="SLljtoW1Gm-KegeCTVSv-12" value="&lt;font style=&quot;font-size: 24px&quot;&gt;&lt;b&gt;£ 26.97&lt;/b&gt;&lt;/font&gt;" style="text;html=1;strokeColor=none;fillColor=none;align=left;verticalAlign=middle;whiteSpace=wrap;rounded=0;" parent="_Pdhp6oRFReHe-XerzVZ-1" vertex="1">
                    <mxGeometry x="350" y="330" width="110" height="30" as="geometry"/>
                </mxCell>
                <mxCell id="2A2LEEih2nL8pZ8DM_D9-0" value="&lt;font style=&quot;font-size: 24px&quot;&gt;Checkout Now&lt;/font&gt;" style="rounded=1;html=1;shadow=0;dashed=0;whiteSpace=wrap;fontSize=10;fillColor=#E6E6E6;align=center;strokeColor=#E6E6E6;fontColor=#333333;" parent="_Pdhp6oRFReHe-XerzVZ-1" vertex="1">
                    <mxGeometry x="490" y="330" width="170" height="30" as="geometry"/>
                </mxCell>
                <mxCell id="2A2LEEih2nL8pZ8DM_D9-1" value="" style="line;strokeWidth=2;html=1;fontSize=36;" parent="_Pdhp6oRFReHe-XerzVZ-1" vertex="1">
                    <mxGeometry x="-340" y="290" width="1000" height="10" as="geometry"/>
                </mxCell>
                <mxCell id="_Pdhp6oRFReHe-XerzVZ-14" value="&lt;span style=&quot;font-size: 18px&quot;&gt;Vegan Vegi Supreme&lt;/span&gt;" style="text;html=1;strokeColor=none;fillColor=none;align=left;verticalAlign=middle;whiteSpace=wrap;rounded=0;" parent="_Pdhp6oRFReHe-XerzVZ-1" vertex="1">
                    <mxGeometry x="-200" y="-15" width="410" height="30" as="geometry"/>
                </mxCell>
            </root>
        </mxGraphModel>
    </diagram>
</mxfile>